HIERARCHY
ROOT root
{
	OFFSET 0.000000 0.000000 0.000000
	CHANNELS 6 Xposition Yposition Zposition Zrotation Yrotation Xrotation
	JOINT lhip
	{
		OFFSET 0.058581 -0.082280 -0.017664
		CHANNELS 3 Zrotation Yrotation Xrotation
		JOINT lknee
		{
			OFFSET 0.043451 -0.386469 0.008037
			CHANNELS 3 Zrotation Yrotation Xrotation
			JOINT lankle
			{
				OFFSET -0.014790 -0.426874 -0.037428
				CHANNELS 3 Zrotation Yrotation Xrotation
				JOINT ltoe
				{
					OFFSET 0.041054 -0.060286 0.122042
					CHANNELS 3 Zrotation Yrotation Xrotation
					End Site
					{
						OFFSET 0.000000 0.000000 0.000000
					}
				}
			}
		}
	}
	JOINT rhip
	{
		OFFSET -0.060310 -0.090513 -0.013543
		CHANNELS 3 Zrotation Yrotation Xrotation
		JOINT rknee
		{
			OFFSET -0.043257 -0.383688 -0.004843
			CHANNELS 3 Zrotation Yrotation Xrotation
			JOINT rankle
			{
				OFFSET 0.019056 -0.420046 -0.034562
				CHANNELS 3 Zrotation Yrotation Xrotation
				JOINT rtoe
				{
					OFFSET -0.034840 -0.062106 0.130323
					CHANNELS 3 Zrotation Yrotation Xrotation
					End Site
					{
						OFFSET 0.000000 0.000000 0.000000
					}
				}
			}
		}
	}
	JOINT lowerback
	{
		OFFSET 0.004439 0.124404 -0.038385
		CHANNELS 3 Zrotation Yrotation Xrotation
		JOINT upperback
		{
			OFFSET 0.004488 0.137956 0.026820
			CHANNELS 3 Zrotation Yrotation Xrotation
			JOINT chest
			{
				OFFSET -0.002265 0.056032 0.002855
				CHANNELS 3 Zrotation Yrotation Xrotation
				JOINT lowerneck
				{
					OFFSET -0.013390 0.211636 -0.033468
					CHANNELS 3 Zrotation Yrotation Xrotation
					JOINT upperneck
					{
						OFFSET 0.010113 0.088937 0.050410
						CHANNELS 3 Zrotation Yrotation Xrotation
						End Site
						{
							OFFSET 0.000000 0.000000 0.000000
						}
					}
				}
				JOINT lclavicle
				{
					OFFSET 0.071702 0.114000 -0.018898
					CHANNELS 3 Zrotation Yrotation Xrotation
					JOINT lshoulder
					{
						OFFSET 0.122921 0.045205 -0.019046
						CHANNELS 3 Zrotation Yrotation Xrotation
						JOINT lelbow
						{
							OFFSET 0.255332 -0.015649 -0.022946
							CHANNELS 3 Zrotation Yrotation Xrotation
							JOINT lwrist
							{
								OFFSET 0.265709 0.012698 -0.007375
								CHANNELS 3 Zrotation Yrotation Xrotation
								End Site
								{
									OFFSET 0.000000 0.000000 0.000000
								}
							}
						}
					}
				}
				JOINT rclavicle
				{
					OFFSET -0.082954 0.112472 -0.023707
					CHANNELS 3 Zrotation Yrotation Xrotation
					JOINT rshoulder
					{
						OFFSET -0.113228 0.046853 -0.008472
						CHANNELS 3 Zrotation Yrotation Xrotation
						JOINT relbow
						{
							OFFSET -0.260127 -0.014369 -0.031269
							CHANNELS 3 Zrotation Yrotation Xrotation
							JOINT rwrist
							{
								OFFSET -0.269108 0.006794 -0.006027
								CHANNELS 3 Zrotation Yrotation Xrotation
								End Site
								{
									OFFSET 0.000000 0.000000 0.000000
								}
							}
						}
					}
				}
			}
		}
	}
}
MOTION
Frames: 16
Frame Time: 0.033333
-0.336215 -1.804411 1.018257 -179.081984 7.509897 81.312287 4.039122 5.069443 15.195258 -6.761271 -6.740976 -5.591945 8.674371 14.762006 -13.893508 0.000000 -0.000000 0.000000 -6.967410 8.238951 -58.756814 -2.018568 -19.896815 132.670515 2.222997 -2.858330 -31.396883 0.000000 -0.000000 0.000000 1.296445 -11.889453 9.053994 4.011650 2.889805 5.047986 -2.601624 -2.914339 -0.369281 8.093859 7.711868 -0.831872 -1.380410 -0.384169 8.661059 -29.521202 -1.955988 4.080439 -58.573376 -4.553330 8.344417 15.411880 -24.245409 -10.514001 -2.991557 -3.582749 -5.424957 28.085005 2.872090 6.784330 56.632422 3.052810 10.375742 -14.530726 24.736227 -7.682518 9.609895 4.383815 -8.937416 
-0.337430 -1.804278 1.018173 -178.852036 7.528972 81.419802 3.983584 5.380855 15.201344 -6.623870 -7.024922 -5.812647 8.925224 14.599022 -13.734982 0.000000 -0.000000 0.000000 -6.882998 8.188437 -58.748889 -2.251118 -20.105059 132.921603 2.126506 -2.908899 -31.496479 0.000000 -0.000000 0.000000 1.446569 -11.999809 9.092441 4.087186 2.815530 4.904915 -2.597647 -2.976135 -0.352989 8.076918 7.728437 -0.947815 -1.465231 -0.433338 8.800975 -29.589405 -1.964404 4.129193 -58.768963 -4.598332 8.242370 15.415946 -24.089923 -10.701650 -3.212004 -3.529023 -5.090288 28.067497 2.854356 6.861886 56.717978 3.167238 10.229111 -14.507076 25.056858 -7.829024 9.509330 4.412435 -8.979829 
-0.338241 -1.803893 1.018258 -178.836566 7.505664 81.427013 3.957044 5.555810 15.345308 -6.639796 -7.188634 -6.014550 8.907899 14.537701 -13.646206 0.000000 -0.000000 0.000000 -6.767714 8.340240 -58.760045 -2.499675 -20.189843 133.224405 2.097358 -3.032127 -31.498443 0.000000 -0.000000 0.000000 1.527521 -12.013166 9.016898 4.117775 2.851745 5.069341 -2.593277 -2.986024 -0.378063 8.100863 7.708289 -1.029067 -1.499748 -0.462844 8.824549 -29.628514 -2.125189 4.198025 -58.854952 -4.550505 8.268539 15.440860 -24.060979 -10.838552 -3.267264 -3.467954 -5.082285 28.055116 2.977503 6.890051 56.949618 3.163032 10.269204 -14.693595 25.264408 -7.950635 9.586540 4.420436 -9.028633 
-0.339030 -1.803278 1.018419 -178.903692 7.478419 81.378840 3.684887 4.939742 15.424646 -6.612126 -6.866694 -6.053969 9.066382 14.922733 -13.544027 0.000000 -0.000000 0.000000 -6.662815 8.715042 -58.881735 -2.618986 -20.287182 133.388264 1.875793 -2.927483 -30.691635 0.000000 -0.000000 0.000000 1.612740 -11.936668 9.063448 4.165635 2.900515 5.138485 -2.608684 -2.992055 -0.379715 8.098571 7.718614 -1.107924 -1.579548 -0.527936 8.850925 -29.662378 -2.173576 4.193889 -58.949954 -4.491246 8.399958 15.602224 -24.032392 -11.064299 -3.602740 -3.470396 -4.851223 28.023371 2.989422 6.884178 57.243527 3.177897 10.476648 -14.907786 25.438000 -7.951482 9.710947 4.413524 -9.142085 
-0.339469 -1.803168 1.018349 -178.866156 7.565271 81.448015 3.619459 4.523164 15.321045 -6.596304 -6.550736 -6.043632 9.309981 15.023484 -13.411370 0.000000 -0.000000 0.000000 -6.649914 8.987692 -59.067349 -2.667926 -20.404107 133.484744 0.620710 -2.523441 -28.252982 0.000000 -0.000000 0.000000 1.791674 -11.947042 9.011883 4.210091 2.902846 5.207163 -2.591876 -3.009081 -0.389884 7.858415 7.530483 -1.185988 -1.487801 -0.403437 8.793727 -29.722251 -2.222520 4.076013 -59.051925 -4.371356 8.521474 15.846706 -24.038739 -11.363327 -4.002637 -3.467901 -4.541140 27.931761 2.990472 6.942042 57.433632 3.265521 10.570684 -15.079750 25.491194 -8.000338 9.906374 4.358285 -9.335769 
-0.340190 -1.803012 1.018135 -178.647457 7.628521 81.465414 3.548729 4.302354 15.204902 -6.546827 -6.686641 -5.922211 9.482217 15.221576 -13.305472 0.000000 -0.000000 0.000000 -6.692277 9.065795 -59.279252 -2.617908 -20.467545 133.459725 -0.046475 -2.377108 -27.363329 0.000000 -0.000000 0.000000 1.942475 -12.058596 9.096787 4.246216 2.896006 5.171510 -2.568004 -3.030706 -0.252731 7.671886 7.416305 -1.393641 -1.515827 -0.377986 8.746700 -29.685319 -2.241200 3.986686 -59.254282 -4.348803 8.697493 16.011449 -24.161896 -11.305320 -3.912717 -3.450570 -4.697686 27.826358 2.993971 6.896118 57.574495 3.276244 10.658961 -15.169107 25.610903 -7.881444 9.959333 4.326276 -9.588263 
-0.340944 -1.802709 1.017883 -178.470999 7.637756 81.381750 3.410926 4.087265 15.174825 -6.511243 -6.880426 -5.743332 9.734638 15.579395 -13.274409 0.000000 -0.000000 0.000000 -6.756441 9.164545 -59.420085 -2.565701 -20.479984 133.484841 -0.019244 -2.397746 -27.409122 0.000000 -0.000000 0.000000 2.017379 -12.091461 9.277568 4.285853 2.936971 5.157950 -2.549555 -3.040922 -0.161552 7.621141 7.378212 -1.542141 -1.646283 -0.476284 8.756476 -29.634101 -2.306930 3.977459 -59.394400 -4.402570 8.853470 16.062709 -24.237364 -11.221385 -3.748725 -3.456512 -4.889129 27.789551 3.004329 6.836829 57.589001 3.197904 10.702930 -15.156634 25.665612 -7.754199 9.876362 4.350595 -9.618522 
-0.341659 -1.802368 1.017551 -178.444344 7.603876 81.301382 3.154976 3.714826 15.146981 -6.448574 -6.964782 -5.586994 10.117016 16.147580 -13.251059 0.000000 -0.000000 0.000000 -6.825536 9.411525 -59.597437 -2.538220 -20.505338 133.562900 -0.040230 -2.501758 -27.408356 0.000000 -0.000000 0.000000 2.063003 -11.985709 9.312936 4.342139 3.058138 5.333513 -2.547356 -3.015917 -0.131998 7.606510 7.331020 -1.553871 -1.718660 -0.647825 8.674638 -29.611397 -2.469280 4.021408 -59.489484 -4.534230 9.079179 16.165986 -24.207490 -11.301418 -3.521763 -3.458030 -5.073734 27.818484 3.095289 6.893805 57.577564 3.114136 10.779641 -15.253558 25.597093 -7.737552 9.736344 4.406152 -9.796665 
-0.342548 -1.802088 1.017235 -178.410341 7.554931 81.254537 2.938789 3.441771 15.171173 -6.425117 -7.058754 -5.582918 10.378666 16.560640 -13.168997 0.000000 -0.000000 0.000000 -6.859711 9.602842 -59.824780 -2.542281 -20.502182 133.608428 -0.030019 -2.580586 -27.453048 0.000000 -0.000000 0.000000 2.150980 -11.938299 9.306336 4.342636 3.183960 5.457839 -2.596286 -2.955763 -0.085949 7.613951 7.275870 -1.532840 -1.757325 -0.801749 8.668286 -29.612097 -2.537123 4.002614 -59.530522 -4.665011 9.261382 16.285401 -24.208439 -11.423198 -3.354079 -3.424497 -5.131097 27.851642 3.197727 6.941402 57.593498 3.091235 10.859246 -15.317350 25.328174 -7.766206 9.673594 4.409022 -9.866652 
-0.344033 -1.801819 1.017013 -178.292173 7.513859 81.230946 2.890522 3.551821 15.322381 -6.518898 -7.136732 -5.781172 10.316059 16.452069 -13.069190 0.000000 -0.000000 0.000000 -6.948586 9.580157 -60.098571 -2.620858 -20.523595 133.622381 -0.044122 -2.644898 -27.492156 0.000000 -0.000000 0.000000 2.338392 -12.060988 9.494102 4.243714 3.318335 5.182770 -2.680599 -2.928203 0.021998 7.594227 7.219859 -1.545953 -1.820742 -0.844962 8.966276 -29.622841 -2.341225 3.875696 -59.563460 -4.708340 9.300845 16.354629 -24.286536 -11.397998 -3.374702 -3.471975 -5.057271 27.819703 3.176842 6.865126 57.616537 3.137382 10.885670 -15.179790 24.832900 -7.682732 9.736995 4.341306 -9.682691 
-0.345117 -1.801247 1.017134 -178.257237 7.506036 81.183442 3.014686 3.773953 15.657803 -6.652518 -7.189249 -6.205284 9.995703 16.077487 -12.942462 0.000000 -0.000000 0.000000 -7.027669 9.583904 -60.233970 -2.671377 -20.628210 133.635520 -0.070237 -2.497856 -27.513537 0.000000 -0.000000 0.000000 2.451417 -12.143956 9.480595 4.215919 3.383981 5.232019 -2.722850 -2.943467 0.007319 7.586898 7.270025 -1.483168 -1.887129 -0.923954 9.081178 -29.670020 -2.259250 3.834287 -59.603836 -4.663015 9.301949 16.454906 -24.278147 -11.429445 -3.504861 -3.502895 -5.010591 27.867136 3.126354 6.859717 57.533256 3.235938 10.769903 -15.100993 24.549575 -7.691450 9.772720 4.295524 -9.605291 
-0.346227 -1.800547 1.017406 -178.061089 7.498431 81.093997 3.304188 4.148372 16.176509 -6.881046 -7.349028 -6.829151 9.488204 15.391231 -12.681471 0.000000 -0.000000 0.000000 -7.064243 9.415555 -60.204848 -2.725183 -20.661846 133.714415 -0.101175 -2.368415 -27.524099 0.000000 -0.000000 0.000000 2.459550 -12.243493 9.454001 4.220462 3.320972 5.468132 -2.710446 -2.975143 -0.081368 7.540229 7.339474 -1.442832 -1.868524 -0.944534 8.978120 -29.705780 -2.371485 3.883286 -59.665393 -4.610848 9.221100 16.496665 -24.184554 -11.485406 -3.569025 -3.508129 -4.976729 27.904046 3.171748 6.939019 57.451208 3.263837 10.539261 -15.110992 24.524876 -7.842046 9.829468 4.243962 -9.545102 
-0.347355 -1.799815 1.017595 -177.670622 7.508377 81.040920 3.578809 4.517224 16.626954 -7.045825 -7.622058 -7.357308 9.028334 14.763714 -12.453656 0.000000 -0.000000 0.000000 -7.076282 9.047641 -60.085922 -2.787081 -20.641637 133.841681 -0.166473 -2.397054 -27.573043 0.000000 -0.000000 0.000000 2.450114 -12.397387 9.574590 4.174224 3.191944 5.414472 -2.674425 -3.036585 -0.131313 7.443858 7.397074 -1.475273 -1.750698 -0.700376 8.884955 -29.660173 -2.460082 3.950764 -59.753561 -4.536539 9.048583 16.398589 -24.082882 -11.318243 -3.617508 -3.516964 -4.976823 27.824059 3.195381 7.004269 57.517198 3.182338 10.325912 -15.115366 24.597079 -7.889005 9.889097 4.238587 -9.405448 
-0.348178 -1.799197 1.017699 -177.373849 7.507218 81.075344 3.623780 4.651850 16.828113 -7.000995 -7.715274 -7.739059 8.714062 14.519170 -12.262130 0.000000 -0.000000 0.000000 -7.095631 8.930064 -60.100173 -2.816358 -20.666042 133.878674 -0.172341 -2.311599 -27.654828 0.000000 -0.000000 0.000000 2.406714 -12.403184 9.432506 4.206410 3.092879 5.560148 -2.684265 -3.090092 -0.098248 7.473962 7.434042 -1.563857 -1.715724 -0.870441 8.885498 -29.680391 -2.516342 3.902339 -59.786344 -4.616174 9.037099 16.413335 -23.857970 -11.408467 -3.697112 -3.547035 -4.842252 27.897393 3.097278 6.932125 57.426131 3.170656 10.222668 -15.083095 24.643358 -7.863628 9.895558 4.275014 -9.314190 
-0.348590 -1.798388 1.017988 -177.188646 7.509073 81.093433 3.614148 4.684298 16.917591 -6.930404 -7.808610 -7.872612 8.529587 14.440899 -12.089156 0.000000 -0.000000 0.000000 -7.037654 9.087369 -60.070506 -2.858744 -20.656711 133.782410 -0.187323 -2.356714 -27.633659 0.000000 -0.000000 0.000000 2.330019 -12.404771 9.371334 4.196088 3.100202 5.609217 -2.688822 -3.090911 -0.111245 7.508984 7.351041 -1.503066 -1.623100 -0.976635 8.775116 -29.708087 -2.490001 3.900132 -59.756742 -4.652656 9.049537 16.478288 -23.796830 -11.472164 -3.659740 -3.524079 -4.863499 27.965005 3.037327 6.962919 57.408292 3.084039 10.214472 -15.063001 24.681049 -7.807761 9.878604 4.263833 -9.356552 
-0.348913 -1.797633 1.018155 -177.034872 7.434243 81.165353 3.380173 4.464503 16.844017 -6.798941 -7.901497 -7.820908 8.577705 14.621407 -11.992893 0.000000 -0.000000 0.000000 -7.019243 9.321702 -60.184076 -2.804134 -20.608978 133.686922 -0.181290 -2.375164 -27.639872 0.000000 -0.000000 0.000000 2.170407 -12.366613 9.308884 4.179733 3.135679 5.526315 -2.701856 -3.067472 -0.090617 7.615048 7.241879 -1.354995 -1.569187 -1.158796 8.840023 -29.648702 -2.405279 3.911929 -59.769953 -4.688820 9.161454 16.535447 -23.819346 -11.513011 -3.622834 -3.498155 -4.913258 27.950230 2.974180 6.962670 57.522623 3.006157 10.343638 -15.058455 24.544521 -7.682033 9.923158 4.242169 -9.438556 
